<svg xmlns="http://www.w3.org/2000/svg" xmlns:xlink="http://www.w3.org/1999/xlink" fill="none" version="1.1" width="323.4639892578125" height="80.5" viewBox="0 0 323.4639892578125 80.5"><g><rect x="0" y="0" width="323.4639892578125" height="80.5" rx="0" fill="#EFEFEF" fill-opacity="1"/><g><rect x="0" y="0" width="82" height="78" rx="0" fill="#FFFFFF" fill-opacity="0.009999999776482582"/></g><g><path d="M22.530892,43.3338Q24.48798,47.179500000000004,27.967959999999998,49.8917Q28.16558,50.0458,28.402540000000002,50.1272Q28.639490000000002,50.2086,28.89005,50.2086L28.89377,50.2086Q28.98454,50.2084,29.07462,50.1972Q29.22123,50.179,29.36149,50.1326Q29.501739999999998,50.0862,29.63023,50.0133Q29.75873,49.9404,29.87054,49.8438Q29.98234,49.7472,30.07316,49.6307Q30.22718,49.4331,30.30861,49.1961Q30.390050000000002,48.959199999999996,30.390050000000002,48.708600000000004Q30.390050000000002,48.6937,30.38975,48.678799999999995Q30.38642,48.5115,30.3463,48.349000000000004Q30.30617,48.186499999999995,30.23123,48.0369Q30.15629,47.887299999999996,30.05021,47.7578Q29.94413,47.6284,29.81213,47.5255Q26.85883,45.2238,25.20459,41.9731Q23.5,38.623599999999996,23.5,34.875Q23.5,31.556800000000003,24.847360000000002,28.526699999999998Q26.15273,25.59104,28.53779,23.32232Q30.93081,21.046030000000002,34.037,19.7963Q37.259,18.5,40.7917,18.5Q44.3244,18.5,47.5463,19.79631Q50.6525,21.046030000000002,53.045500000000004,23.32232Q55.4306,25.59104,56.736,28.526699999999998Q58.0833,31.556800000000003,58.0833,34.875Q58.0833,38.623599999999996,56.3787,41.9731Q54.7245,45.2238,51.7712,47.5255Q51.6362,47.630700000000004,51.528400000000005,47.7636Q51.4206,47.8965,51.3455,48.0503Q51.270399999999995,48.204,51.2318,48.3708Q51.1933,48.5375,51.1933,48.708600000000004Q51.1933,48.7324,51.194,48.7561Q51.2016,48.9944,51.2826,49.2185Q51.363600000000005,49.4427,51.5102,49.6307Q51.601,49.7472,51.7128,49.8438Q51.824600000000004,49.9404,51.9531,50.0133Q52.0816,50.0862,52.2218,50.1326Q52.3621,50.179,52.508700000000005,50.1972Q52.6006,50.2086,52.6933,50.2086Q52.7098,50.2086,52.7262,50.2083Q52.9683,50.2029,53.1963,50.1218Q53.4244,50.0406,53.6154,49.8917Q57.0954,47.179500000000004,59.0524,43.3338Q61.0833,39.343,61.0833,34.875Q61.0833,30.9199,59.4772,27.3078Q57.9298,23.82788,55.1132,21.14865Q52.304500000000004,18.47698,48.6661,17.0131212Q44.9052,15.5,40.7917,15.5Q36.6781,15.5,32.9172,17.0131205Q29.27883,18.47698,26.47015,21.14865Q23.65352,23.82788,22.106141,27.3078Q20.5,30.9199,20.5,34.875Q20.5,39.343,22.530892,43.3338Z" fill-rule="evenodd" fill="#C7F5F5" fill-opacity="1"/></g><g><path d="M13.11971,52.0345Q18.08532,59.463,26.3634,63.3311Q26.5419,63.4144,26.7332,63.4614Q26.9245,63.5084,27.1213,63.5171Q27.3181,63.5259,27.5128,63.4961Q27.7075,63.4662,27.8927,63.399Q28.0778,63.3318,28.2463,63.2297Q28.4148,63.1277,28.5601,62.9947Q28.7055,62.8617,28.8221,62.703Q28.9387,62.5442,29.022,62.3657Q29.0636,62.2767,29.0963,62.1841Q29.129,62.0914,29.1524,61.996Q29.1758,61.9006,29.1898,61.8033Q29.2038,61.706,29.2081,61.6079Q29.2125,61.5097,29.2072,61.4116Q29.2019,61.3135,29.187,61.2164Q29.1722,61.1193,29.1479,61.0241Q29.1235,60.9289,29.09,60.8365Q29.0565,60.7442,29.0141,60.6555Q28.9716,60.5669,28.9207,60.4829Q28.8698,60.3988,28.8109,60.3202Q28.752,60.2416,28.6857,60.1691Q28.6194,60.0966,28.5463,60.0309Q28.4732,59.9653,28.394,59.9071Q28.3148,59.849,28.2303,59.7988Q28.1458,59.7487,28.0567,59.7071Q20.7902,56.3118,16.44516,49.8116Q12,43.1617,12,35.25Q12,29.7237,14.243970000000001,24.6772Q16.41669,19.7909,20.384900000000002,16.0163Q24.3637,12.23152,29.5272,10.15407Q34.8812,8,40.75,8Q46.6188,8,51.9728,10.15407Q57.1363,12.23152,61.1151,16.0163Q65.08330000000001,19.7909,67.256,24.6772Q69.5,29.7237,69.5,35.25Q69.5,43.1617,65.0548,49.8116Q60.7097,56.3118,53.4433,59.7071Q53.2648,59.7905,53.106,59.9071Q52.9473,60.0237,52.8143,60.1691Q52.6813,60.3144,52.5793,60.4829Q52.4772,60.6514,52.41,60.8365Q52.3428,61.0217,52.313,61.2164Q52.2831,61.4111,52.2919,61.6079Q52.3006,61.8047,52.3476,61.996Q52.3946,62.1873,52.478,62.3657Q52.5613,62.5442,52.6779,62.703Q52.7945,62.8617,52.9399,62.9947Q53.0852,63.1277,53.2537,63.2297Q53.4222,63.3318,53.6073,63.399Q53.7925,63.4662,53.9872,63.4961Q54.1819,63.5259,54.3787,63.5171Q54.5755,63.5084,54.7668,63.4614Q54.9581,63.4144,55.1366,63.3311Q63.4147,59.463,68.3803,52.0345Q73.5,44.3755,73.5,35.25Q73.5,28.8745,70.911,23.052Q68.4156,17.439999999999998,63.8719,13.11802Q59.3389,8.80611,53.4658,6.443159Q47.3933,4,40.75,4Q34.106700000000004,4,28.0342,6.443159Q22.161099999999998,8.80611,17.62805,13.11802Q13.08441,17.439999999999998,10.589014,23.052Q8,28.8745,8,35.25Q8,44.3755,13.11971,52.0345ZM141.968,56.4123L168.528,53.5323Q168.718,53.5117,168.901,53.4552Q169.084,53.3988,169.253,53.3086Q169.422,53.2184,169.571,53.0978Q169.72,52.9771,169.843,52.8304L172.056,50.196L171.596,52.572Q171.595,52.5798,171.593,52.5876Q171.558,52.7813,171.56,52.9782Q171.563,53.1752,171.604,53.3679Q171.645,53.5605,171.722,53.7415Q171.8,53.9225,171.912,54.0848Q172.023,54.2472,172.164,54.3846Q172.306,54.5221,172.471,54.6294Q172.636,54.7367,172.819,54.8096Q173.002,54.8826,173.196,54.9185L191.5,58.3105Q191.799,58.3661,192.102,58.3298Q192.405,58.2934,192.683,58.1685L195.819,56.7605Q196.108,56.6308,196.343,56.4182Q196.577,56.2056,196.735,55.9308L204.735,41.9789Q204.796,41.872,204.844,41.7584Q204.892,41.6448,204.925,41.5262Q204.958,41.4077,204.977,41.2859Q204.996,41.1641,204.999,41.041Q205.003,40.9178,204.991,40.7952Q204.979,40.6726,204.953,40.5523Q204.926,40.432,204.885,40.3159Q204.844,40.1998,204.789,40.0896L202.549,35.6096Q202.44,35.3928,202.283,35.208200000000005Q202.126,35.0235,201.93,34.8818Q201.733,34.739999999999995,201.508,34.6493Q201.284,34.5586,201.044,34.5242L182.363,31.8472L182.646,28.3856L198.735,27.1703Q198.832,27.163,198.928,27.1462Q199.024,27.1294,199.118,27.1034Q199.212,27.0773,199.303,27.0423Q199.394,27.0072,199.481,26.9635Q199.568,26.9197,199.651,26.8677Q199.733,26.8157,199.81,26.7559Q199.887,26.6961,199.958,26.6291Q200.029,26.5621,200.093,26.4885Q200.157,26.4149,200.214,26.3354Q200.27,26.256,200.319,26.1714Q200.367,26.0868,200.407,25.9979Q200.447,25.909,200.479,25.8166Q200.51,25.7242,200.532,25.6292Q200.554,25.5342,200.567,25.4375Q200.58,25.3409,200.583,25.2434Q200.586,25.1459,200.58,25.0486L200.196,19.032600000000002Q200.195,19.0184,200.194,19.0042Q200.186,18.9063,200.169,18.8095Q200.152,18.7128,200.125,18.6182Q200.099,18.523600000000002,200.063,18.4321Q200.027,18.340600000000002,199.982,18.253Q199.938,18.1655,199.885,18.082700000000003Q199.832,17.9999,199.771,17.9227Q199.711,17.8455,199.642,17.7747Q199.574,17.7038,199.5,17.6399Q199.425,17.5761,199.345,17.5199Q199.264,17.4636,199.178,17.415599999999998Q199.093,17.3675,199.003,17.3281Q198.913,17.2887,198.819,17.258200000000002Q198.726,17.227800000000002,198.63,17.206699999999998Q198.534,17.1856,198.436,17.174Q198.339,17.162399999999998,198.24,17.1604Q198.142,17.1584,198.044,17.1661L177.564,18.7661Q177.214,18.7935,176.894,18.9387Q176.574,19.0839,176.322,19.3296L173.506,22.0816Q173.377,22.2077,173.273,22.3547Q173.169,22.5018,173.092,22.6651Q173.016,22.8285,172.97,23.0029Q172.924,23.1773,172.91,23.357L172.065,34.2278L170.756,14.54721Q170.749,14.44938,170.733,14.35266Q170.717,14.25594,170.692,14.16125Q170.666,14.06657,170.632,13.974820000000001Q170.597,13.88307,170.554,13.79515Q170.51,13.70722,170.458,13.62396Q170.407,13.540700000000001,170.347,13.462900000000001Q170.287,13.385100000000001,170.22,13.31351Q170.153,13.24192,170.08,13.17723Q170.006,13.11253,169.926,13.05535Q169.847,12.99817,169.762,12.94906Q169.677,12.89994,169.588,12.859359999999999Q169.499,12.81878,169.406,12.78712Q169.313,12.755469999999999,169.218,12.733039999999999Q169.122,12.710609999999999,169.025,12.69762Q168.928,12.68463,168.83,12.68121Q168.732,12.67779,168.634,12.68397L162.554,13.06798Q162.546,13.0685,162.537,13.06908Q162.341,13.083120000000001,162.151,13.13521Q161.961,13.18731,161.785,13.27547Q161.609,13.363620000000001,161.453,13.484449999999999Q161.298,13.60528,161.169,13.75414Q161.04,13.902999999999999,160.942,14.07416Q160.845,14.24533,160.782,14.43223Q160.72,14.61912,160.696,14.81457Q160.671,15.01001,160.685,15.2065L161.529,27.027L145.204,24.4171Q145.007,24.3856,144.807,24.3936Q144.608,24.4017,144.414,24.4491Q144.22,24.4965,144.039,24.5812Q143.858,24.666,143.698,24.7849L140.242,27.3449Q140.08,27.4644,139.946,27.6137Q139.811,27.7629,139.709,27.9359Q139.607,28.1089,139.542,28.2988Q139.476,28.4886,139.45,28.6877L137.501,43.3023L136.70999999999998,26.9354Q136.699,26.7229,136.64499999999998,26.5174Q136.59,26.3118,136.493,26.1223Q136.39600000000002,25.9329,136.262,25.768Q136.128,25.6032,135.961,25.4703L132.441,22.6543Q132.279,22.5241,132.09300000000002,22.4303Q131.90699999999998,22.3365,131.70600000000002,22.283Q131.50400000000002,22.2296,131.296,22.2187Q131.088,22.2079,130.882,22.2401L111.682,25.2481Q111.362,25.2983,111.074,25.447Q110.786,25.5957,110.56,25.8278L108.064,28.3878Q107.8452,28.6123,107.7055,28.8929Q107.5658,29.1736,107.5187,29.4835L104.3187,50.5395L104.3178,50.5454Q104.2888,50.7402,104.2984,50.937Q104.3079,51.1337,104.3557,51.3248Q104.4034,51.5159,104.4875,51.6941Q104.5716,51.8722,104.6889,52.0305Q104.8061,52.1887,104.952,52.3211Q105.0979,52.4535,105.2668,52.5549Q105.4357,52.6562,105.6211,52.7227Q105.8065,52.7892,106.0014,52.8182L112.017,53.7142Q112.115,53.7287,112.213,53.7335Q112.311,53.7384,112.409,53.7337Q112.507,53.7289,112.604,53.7145Q112.701,53.7002,112.797,53.6764Q112.892,53.6526,112.985,53.6195Q113.077,53.5865,113.166,53.5445Q113.255,53.5026,113.339,53.4522Q113.423,53.4017,113.502,53.3432Q113.581,53.2848,113.654,53.2189Q113.727,53.1529,113.793,53.0802Q113.859,53.0074,113.918,52.9286Q113.976,52.8497,114.027,52.7655Q114.077,52.6813,114.119,52.5925Q114.161,52.5037,114.195,52.4112Q114.228,52.3188,114.252,52.2235Q114.276,52.1282,114.29,52.031L116.89,34.6001L126.873,33.0065L127.85,52.6036L127.851,52.6091Q127.861,52.8058,127.91,52.9967Q127.958,53.1876,128.043,53.3654Q128.128,53.5432,128.24599999999998,53.701Q128.364,53.8588,128.51,53.9906Q128.656,54.1224,128.826,54.223Q128.995,54.3237,129.18099999999998,54.3894Q129.36700000000002,54.4551,129.561,54.4834Q129.756,54.5116,129.953,54.5012L136.03300000000002,54.1812Q136.163,54.1744,136.291,54.1507Q136.42000000000002,54.127,136.54399999999998,54.0869Q136.668,54.0468,136.785,53.9909Q136.90300000000002,53.9351,137.013,53.8644Q137.122,53.7937,137.221,53.7094Q137.321,53.6252,137.40800000000002,53.5287Q137.49599999999998,53.4322,137.57,53.3252Q137.64499999999998,53.2182,137.70499999999998,53.1024L140.311,55.8108Q140.47,55.9759,140.662,56.1008Q140.854,56.2257,141.069,56.3039Q141.285,56.3821,141.512,56.4096Q141.74,56.437,141.968,56.4123ZM172.244,36.9178L172.864,46.235Q172.897,46.156,172.936,46.0801Q172.975,46.0043,173.021,45.932Q173.067,45.8598,173.118,45.7917Q173.17,45.7236,173.227,45.6601Q173.284,45.5967,173.347,45.5383Q173.409,45.48,173.477,45.4272Q173.544,45.3744,173.615,45.3276Q173.687,45.2807,173.762,45.2401Q173.837,45.1995,173.915,45.1655Q173.994,45.1314,174.075,45.1042Q174.156,45.077,174.239,45.0568Q174.322,45.0365,174.406,45.0235Q174.491,45.0104,174.576,45.0046Q174.661,44.9988,174.747,45.0003Q174.832,45.0018,174.917,45.0106Q175.002,45.0193,175.086,45.0353L189.819,47.8416L192.36,43.4465L176.225,41.1724Q176.032,41.1453,175.849,41.0816Q175.665,41.0179,175.497,40.9201Q175.329,40.8222,175.183,40.6939Q175.037,40.5655,174.919,40.4114L172.359,37.0834Q172.297,37.0035,172.244,36.9178ZM100.2765,55.8543L105.7165,17.1343Q105.7181,17.1231,105.7196,17.1119Q105.7448,16.916600000000003,105.7314,16.720100000000002Q105.718,16.5235,105.6665,16.333399999999997Q105.6151,16.1432,105.5275,15.9668Q105.4399,15.79036,105.3196,15.63439Q105.1993,15.47843,105.0508,15.34893Q104.9024,15.21943,104.7315,15.12138Q104.5607,15.02333,104.374,14.96049Q104.1873,14.89765,103.9919,14.87244L98.0399,14.10444Q97.9433,14.09197,97.8459,14.08896Q97.7485,14.08594,97.6513,14.0924Q97.5541,14.09887,97.458,14.11475Q97.3618,14.13063,97.2677,14.15578Q97.1736,14.18093,97.0823,14.21512Q96.9911,14.2493,96.9036,14.29219Q96.8161,14.33508,96.7332,14.38627Q96.6503,14.43745,96.5728,14.49646Q96.4953,14.55546,96.4238,14.62173Q96.3524,14.68799,96.2878,14.76088Q96.2231,14.83377,96.1658,14.9126Q96.1086,14.99143,96.0592,15.07546Q96.0099,15.15948,95.969,15.2479Q95.9281,15.33632,95.8959,15.4283Q95.8638,15.52028,95.8408,15.61495Q95.8177,15.70961,95.804,15.80607L90.3,54.4621Q90.2994,54.466,90.2989,54.47Q90.2719,54.6651,90.2835,54.8618Q90.2951,55.0584,90.3448,55.249Q90.3946,55.4396,90.4805,55.6169Q90.5665,55.7941,90.6854,55.9511Q90.8043,56.1082,90.9515,56.239Q91.0988,56.3699,91.2687,56.4695Q91.4387,56.5691,91.6248,56.6336Q91.8109,56.6982,92.006,56.7251L98.022,57.5571Q98.1192,57.5706,98.2172,57.5745Q98.3153,57.5783,98.4132,57.5726Q98.5112,57.5668,98.6081,57.5515Q98.705,57.5362,98.8,57.5115Q98.8949,57.4867,98.987,57.4528Q99.0791,57.4189,99.1674,57.3762Q99.2557,57.3334,99.3394,57.2822Q99.4231,57.2311,99.5014,57.1719Q99.5797,57.1128,99.6519,57.0463Q99.724,56.9798,99.7893,56.9065Q99.8545,56.8332,99.9123,56.7539Q99.9701,56.6746,100.0199,56.5901Q100.0696,56.5055,100.1108,56.4165Q100.1521,56.3274,100.1844,56.2348Q100.2167,56.1421,100.2398,56.0468Q100.2629,55.9514,100.2765,55.8543ZM167.297,49.6423L142.512,52.3298L140.598,50.3403L143.303,30.0553L145.403,28.4997L163.388,31.3749Q163.485,31.3904,163.583,31.3964Q163.681,31.4023,163.78,31.3986Q163.878,31.3949,163.975,31.3815Q164.073,31.3682,164.168,31.3454Q164.264,31.3226,164.357,31.2906Q164.449,31.2585,164.539,31.2175Q164.628,31.1765,164.713,31.1269Q164.798,31.0774,164.877,31.0197Q164.957,30.9621,165.03,30.8969Q165.104,30.8318,165.171,30.7597Q165.238,30.6877,165.297,30.6094Q165.356,30.5312,165.408,30.4475Q165.459,30.3638,165.502,30.2754Q165.545,30.1871,165.579,30.0949Q165.614,30.0028,165.638,29.9078Q165.663,29.8127,165.679,29.7157Q165.715,29.4878,165.699,29.2575L164.819,16.9329L166.897,16.8017L168.951,47.6738L167.297,49.6423ZM301.183,26.5743L300.447,39.3048L312.966,36.6024L311.925,28.7704L301.183,26.5743ZM299.974,47.4819L299.991,47.5573Q300.012,47.6526,300.042,47.7455Q300.072,47.8383,300.111,47.9278Q300.15,48.0172,300.197,48.1025Q300.245,48.1877,300.301,48.2679Q300.356,48.3481,300.419,48.4225Q300.483,48.4969,300.553,48.5648Q300.623,48.6327,300.699,48.6935Q300.776,48.7542,300.858,48.8072Q300.94,48.8602,301.026,48.905Q301.113,48.9498,301.204,48.9859Q301.294,49.0221,301.388,49.0492Q301.482,49.0763,301.578,49.0942Q301.674,49.1121,301.771,49.1205Q301.868,49.1289,301.966,49.1279Q302.063,49.1268,302.16,49.1162Q302.258,49.1057,302.353,49.0857L319.505,45.5017Q319.69,45.463,319.865,45.3901Q320.04,45.3173,320.198,45.2129Q320.356,45.1085,320.492,44.9763Q320.628,44.8441,320.736,44.6888L323.104,41.2968Q323.21,41.1453,323.286,40.9769Q323.362,40.8085,323.406,40.629Q323.45,40.4495,323.461,40.2649Q323.471,40.0804,323.448,39.8971L321.4,23.9611Q321.362,23.6649,321.239,23.3928Q321.116,23.1207,320.919,22.8964L318.615,20.272399999999998Q318.399,20.0268,318.117,19.8626Q317.834,19.6985,317.514,19.6328L297.546,15.53679Q297.332,15.493,297.115,15.49622Q296.897,15.49943,296.684,15.5495Q296.472,15.59957,296.276,15.69414Q296.08,15.78872,295.908,15.92336L292.324,18.7394Q292.158,18.8705,292.022,19.0337Q291.886,19.1969,291.788,19.384900000000002Q291.689,19.5729,291.633,19.7774Q291.576,19.9819,291.564,20.1938L290.024,46.1863L289.415,46.0123L286.006,20.7485Q285.978,20.5414,285.908,20.3446Q285.838,20.1477,285.728,19.9696Q285.619,19.7915,285.475,19.6399Q285.331,19.4882,285.159,19.3696L281.447,16.8096Q281.273,16.6892,281.077,16.6081Q280.881,16.527,280.673,16.488799999999998Q280.464,16.4506,280.252,16.456899999999997Q280.041,16.4632,279.835,16.5138L253.531,22.9778L253.518,22.981Q253.316,23.0319,253.13,23.1232Q252.943,23.2144,252.779,23.3421Q252.615,23.4698,252.481,23.6285Q252.347,23.7872,252.248,23.9701Q252.103,23.7007,251.883,23.4872Q251.664,23.2737,251.391,23.1355L246.079,20.447499999999998Q245.991,20.4032,245.9,20.3677Q245.809,20.3321,245.714,20.3057Q245.62,20.279400000000003,245.523,20.2623Q245.426,20.2453,245.329,20.2378Q245.231,20.2303,245.133,20.2325Q245.035,20.2346,244.937,20.246299999999998Q244.84,20.258,244.744,20.2792Q244.648,20.3004,244.555,20.3309Q244.462,20.3613,244.372,20.4008Q244.282,20.4402,244.197,20.4882Q244.111,20.5363,244.031,20.5925Q243.95,20.648600000000002,243.876,20.712400000000002Q243.801,20.7762,243.733,20.847Q243.665,20.9177,243.605,20.994799999999998Q243.544,21.0719,243.491,21.154600000000002Q243.438,21.2372,243.394,21.3246L236.307,35.2452L231.377,24.5319Q231.317,24.4023,231.24,24.2825Q231.162,24.1626,231.069,24.055Q230.975,23.9474,230.867,23.8541Q230.759,23.7609,230.639,23.6839Q230.519,23.607,230.389,23.5478Q230.259,23.4887,230.122,23.4486Q229.985,23.4085,229.844,23.3883Q229.703,23.368,229.56,23.368L224.056,23.368Q223.908,23.368,223.762,23.3897Q223.616,23.4114,223.475,23.4543Q223.334,23.4972,223.2,23.5604Q223.067,23.6236,222.944,23.7057Q222.821,23.7878,222.712,23.887Q222.603,23.9862,222.509,24.1005Q222.415,24.2147,222.34,24.3414Q222.264,24.4681,222.207,24.6046L217.618,35.719L211.913,20.5058Q211.878,20.4146,211.836,20.3271Q211.793,20.2397,211.741,20.1568Q211.69,20.073900000000002,211.631,19.9964Q211.572,19.919,211.506,19.8476Q211.44,19.7762,211.367,19.7115Q211.294,19.646900000000002,211.215,19.5897Q211.136,19.5325,211.052,19.4832Q210.968,19.4339,210.88,19.392899999999997Q210.792,19.352,210.7,19.3199Q210.608,19.2878,210.513,19.264699999999998Q210.418,19.2417,210.322,19.228Q210.226,19.214199999999998,210.128,19.209899999999998Q210.031,19.2057,209.934,19.2108Q209.836,19.216,209.74,19.230600000000003Q209.644,19.2452,209.549,19.2691Q209.455,19.293,209.363,19.326L203.667,21.374000000000002Q203.652,21.3794,203.637,21.385199999999998Q203.453,21.4548,203.286,21.558999999999997Q203.118,21.6633,202.975,21.798099999999998Q202.831,21.933,202.717,22.0933Q202.602,22.2535,202.521,22.4331Q202.44,22.6126,202.396,22.8045Q202.351,22.9964,202.345,23.1933Q202.339,23.3902,202.371,23.5845Q202.403,23.7788,202.473,23.9631L212.777,51.2271Q212.831,51.3687,212.905,51.5008Q212.979,51.6328,213.073,51.7521Q213.166,51.8714,213.276,51.9753Q213.386,52.0792,213.511,52.1653Q213.636,52.2514,213.772,52.3178Q213.908,52.3842,214.052,52.4293Q214.197,52.4744,214.347,52.4972Q214.497,52.52,214.648,52.52L220.28,52.52Q220.428,52.52,220.574,52.4982Q220.721,52.4764,220.862,52.4334Q221.004,52.3903,221.137,52.3269Q221.271,52.2634,221.394,52.181Q221.517,52.0986,221.626,51.999Q221.736,51.8994,221.829,51.7848Q221.923,51.6701,221.999,51.543Q222.074,51.4159,222.13,51.279L227.098,39.1665L231.581,48.9827Q231.64,49.1129,231.717,49.2332Q231.795,49.3535,231.888,49.4617Q231.982,49.5698,232.09,49.6635Q232.198,49.7571,232.319,49.8345Q232.439,49.9118,232.569,49.9712Q232.699,50.0307,232.837,50.071Q232.974,50.1113,233.115,50.1316Q233.257,50.152,233.4,50.152L238.84,50.152Q238.978,50.152,239.116,50.1329Q239.253,50.1138,239.386,50.076Q239.519,50.0382,239.646,49.9824Q239.773,49.9266,239.891,49.8539Q240.008,49.7811,240.115,49.6929Q240.222,49.6046,240.315,49.5024Q240.409,49.4003,240.487,49.2862Q240.566,49.1722,240.628,49.0484L252.207,25.9546L253.541,31.2341Q253.565,31.3289,253.598,31.4209Q253.631,31.5129,253.673,31.6012Q253.715,31.6895,253.765,31.7733Q253.816,31.8572,253.874,31.9357Q253.932,32.0142,253.998,32.086600000000004Q254.063,32.159099999999995,254.136,32.2248Q254.208,32.2905,254.287,32.3489Q254.365,32.4072,254.449,32.4576Q254.533,32.507999999999996,254.621,32.55Q254.709,32.592,254.801,32.6252Q254.893,32.6584,254.988,32.682500000000005Q255.083,32.7065,255.179,32.721199999999996Q255.276,32.736000000000004,255.373,32.7412Q255.471,32.7464,255.569,32.742000000000004Q255.666,32.737700000000004,255.763,32.7239Q255.86,32.71,255.955,32.686800000000005L276.835,27.5829L277.577,33.096000000000004L259.64,33.096000000000004Q259.299,33.096000000000004,258.978,33.2087Q258.65700000000004,33.3215,258.39099999999996,33.5343L255.511,35.838300000000004Q255.255,36.042500000000004,255.078,36.3173Q254.901,36.5921,254.821,36.909L251.109,51.565Q251.078,51.6871,251.063,51.8121Q251.048,51.9371,251.048,52.0631Q251.048,52.1891,251.065,52.314Q251.081,52.4389,251.113,52.5608Q251.145,52.6827,251.191,52.7996Q251.238,52.9166,251.299,53.0267Q251.361,53.1368,251.435,53.2384Q251.509,53.34,251.596,53.4315L255.052,57.0795Q255.22,57.2566,255.425,57.3881Q255.631,57.5197,255.862,57.598Q256.09299999999996,57.6764,256.336,57.6969Q256.579,57.7174,256.82,57.6789L282.146,53.6316L282.569,54.1256Q282.763,54.3509,283.013,54.5104Q283.263,54.6699,283.549,54.7499L289.42,56.3938L289.324,58.0178L289.323,58.0298Q289.312,58.2265,289.34,58.4214Q289.369,58.6164,289.434,58.8021Q289.5,58.9879,289.6,59.1572Q289.701,59.3266,289.833,59.4731Q289.964,59.6196,290.122,59.7376Q290.28,59.8556,290.458,59.9405Q290.635,60.0254,290.826,60.0741Q291.017,60.1227,291.214,60.1332L297.23,60.4532Q297.328,60.4584,297.425,60.454Q297.523,60.4496,297.62,60.4357Q297.717,60.4218,297.812,60.3984Q297.908,60.3751,298,60.3426Q298.092,60.3101,298.181,60.2687Q298.27,60.2273,298.354,60.1774Q298.439,60.1275,298.518,60.0696Q298.597,60.0118,298.67,59.9464Q298.743,59.8811,298.809,59.809Q298.875,59.7368,298.934,59.6585Q298.993,59.5803,299.044,59.4966Q299.095,59.4129,299.137,59.3247Q299.18,59.2365,299.214,59.1445Q299.247,59.0525,299.272,58.9577Q299.297,58.8628,299.312,58.7661Q299.327,58.6693,299.333,58.5715L299.974,47.4819ZM289.63,50.2336L287.059,49.4991Q286.919,49.4592,286.787,49.3996Q286.655,49.3401,286.532,49.2621Q286.41,49.1841,286.3,49.0892Q286.19,48.9944,286.096,48.8847Q286.001,48.775,285.923,48.6528Q285.845,48.5305,285.785,48.3983Q285.725,48.2661,285.685,48.1266Q285.645,47.9872,285.626,47.8435L282.16,22.1602L279.916,20.6127L256.44,26.3818L256.933,28.33L278.045,23.1692Q278.148,23.144,278.253,23.1299Q278.448,23.1036,278.645,23.1159Q278.842,23.1282,279.032,23.1787Q279.222,23.2291,279.399,23.3157Q279.576,23.4023,279.733,23.5218Q279.89,23.6412,280.02,23.7889Q280.15,23.9367,280.249,24.107Q280.348,24.2773,280.412,24.4636Q280.476,24.65,280.502,24.8452L281.846,34.8292Q281.864,34.962,281.864,35.096000000000004Q281.864,35.1943,281.854,35.292Q281.845,35.3898,281.826,35.4862Q281.806,35.582499999999996,281.778,35.6766Q281.749,35.7706,281.712,35.8614Q281.674,35.9521,281.628,36.038799999999995Q281.582,36.1254,281.527,36.2071Q281.472,36.288799999999995,281.41,36.3648Q281.348,36.4407,281.278,36.5102Q281.209,36.5797,281.133,36.641999999999996Q281.057,36.7044,280.975,36.7589Q280.893,36.813500000000005,280.807,36.8598Q280.72,36.9062,280.629,36.943799999999996Q280.539,36.9814,280.445,37.0099Q280.351,37.038399999999996,280.254,37.0576Q280.158,37.0767,280.06,37.0864Q279.962,37.096000000000004,279.864,37.096000000000004L260.342,37.096000000000004L258.534,38.5421L255.257,51.4798L257.23,53.5626L282.62,49.5051Q282.747,49.4849,282.874,49.481Q283.002,49.477,283.129,49.4893Q283.256,49.5017,283.381,49.5301Q283.505,49.5585,283.625,49.6025Q283.745,49.6465,283.859,49.7055Q283.972,49.7644,284.077,49.8373Q284.182,49.9102,284.277,49.9958Q284.371,50.0814,284.455,50.1784L285.212,51.0617L289.097,52.1497L289.63,50.2336ZM293.435,56.2457L295.454,56.3531L297.323,24.0365Q297.332,23.8926,297.361,23.7514Q297.38,23.6551,297.409,23.5613Q297.438,23.4674,297.476,23.3768Q297.514,23.2862,297.561,23.1998Q297.608,23.1134,297.663,23.032Q297.718,22.9506,297.781,22.875Q297.844,22.7994,297.913,22.7303Q297.983,22.6612,298.059,22.5993Q298.136,22.5373,298.218,22.4832Q298.3,22.429,298.387,22.3832Q298.473,22.3373,298.564,22.3002Q298.655,22.2631,298.75,22.2351Q298.844,22.207,298.94,22.1884Q299.037,22.1697,299.135,22.1606Q299.232,22.1515,299.331,22.152Q299.429,22.1525,299.527,22.1627Q299.624,22.1728,299.721,22.1925L314.121,25.1365Q314.272,25.1676,314.418,25.2216Q314.563,25.2756,314.698,25.3514Q314.833,25.4271,314.955,25.5228Q315.077,25.6185,315.182,25.7318Q315.288,25.8451,315.375,25.9733Q315.462,26.1015,315.528,26.2416Q315.594,26.3816,315.638,26.5302Q315.682,26.6788,315.703,26.8324L317.175,37.904399999999995Q317.187,37.9968,317.19,38.09Q317.194,38.1831,317.189,38.2762Q317.184,38.3693,317.17,38.4615Q317.157,38.5537,317.134,38.6442Q317.112,38.7347,317.082,38.8228Q317.051,38.9109,317.013,38.9958Q316.974,39.0806,316.928,39.1615Q316.881,39.2424,316.828,39.3187Q316.774,39.3949,316.714,39.4658Q316.653,39.5368,316.586,39.6017Q316.52,39.6667,316.447,39.7252Q316.374,39.7837,316.297,39.8352Q316.219,39.8867,316.137,39.9307Q316.055,39.9748,315.969,40.011Q315.883,40.0472,315.794,40.0752Q315.705,40.1033,315.614,40.123L303.048,42.8354L303.472,44.7654L317.91,41.7486L319.382,39.6406L317.51,25.0767L316.052,23.4163L297.65,19.6415L295.503,21.3286L293.921,48.0548Q294.059,48.3708,294.083,48.7149Q294.107,49.059,294.015,49.3913L293.794,50.1859L293.435,56.2457ZM101.474,18.5807L96.5931,53.3215L94.5431,53.0379L99.4858,18.324199999999998L101.474,18.5807ZM193.588,53.3776L191.614,54.2637L175.907,51.3528L176.297,49.3378L190.466,52.0367Q190.618,52.0656,190.772,52.0708Q190.927,52.0761,191.08,52.0575Q191.234,52.0389,191.383,51.9969Q191.532,51.955,191.672,51.8906Q191.813,51.8262,191.942,51.741Q192.071,51.6558,192.185,51.5518Q192.3,51.4477,192.397,51.3273Q192.494,51.2069,192.571,51.073L197.307,42.881Q197.406,42.7105,197.469,42.524Q197.533,42.3375,197.559,42.1422Q197.585,41.9469,197.572,41.7504Q197.559,41.5538,197.508,41.3635Q197.457,41.1732,197.37,40.9965Q197.283,40.8198,197.163,40.6634Q197.044,40.5071,196.896,40.3771Q196.748,40.2471,196.577,40.1485Q196.24,39.9539,195.855,39.8996L177.592,37.325500000000005L175.997,35.253299999999996L176.84,24.4167L178.599,22.6974L196.333,21.3119L196.462,23.3306L180.641,24.5257Q180.553,24.5323,180.466,24.5468Q180.379,24.5612,180.293,24.5832Q180.207,24.6053,180.124,24.6348Q180.041,24.6643,179.96,24.7011Q179.88,24.7379,179.803,24.7816Q179.726,24.8253,179.654,24.8756Q179.581,24.926,179.513,24.9825Q179.445,25.0391,179.382,25.1014Q179.319,25.1637,179.262,25.2313Q179.206,25.2989,179.155,25.3713Q179.104,25.4437,179.06,25.5203Q179.016,25.5969,178.978,25.677Q178.941,25.7572,178.911,25.8404Q178.881,25.9235,178.858,26.009Q178.836,26.0945,178.821,26.1816Q178.806,26.2688,178.799,26.3569L178.223,33.3969Q178.215,33.491,178.216,33.585499999999996Q178.217,33.6799,178.227,33.7738Q178.238,33.8678,178.256,33.960300000000004Q178.275,34.052800000000005,178.303,34.1432Q178.33,34.2335,178.366,34.3209Q178.402,34.4082,178.446,34.4918Q178.49,34.5754,178.542,34.654399999999995Q178.594,34.7335,178.653,34.8073Q178.712,34.8811,178.777,34.9491Q178.843,35.0171,178.914,35.0785Q178.986,35.14,179.063,35.1944Q179.141,35.2489,179.222,35.2958Q179.304,35.3427,179.391,35.381699999999995Q179.477,35.4207,179.566,35.4514Q179.655,35.4821,179.747,35.5042Q179.839,35.526399999999995,179.932,35.5398L199.44,38.3352L200.732,40.9193L193.588,53.3776ZM226.169,32.3167Q225.997,32.3951,225.843,32.504400000000004Q225.689,32.613600000000005,225.558,32.749700000000004Q225.427,32.8858,225.324,33.0441Q225.221,33.2023,225.15,33.376999999999995L218.939,48.52L216.03,48.52L206.933,24.4503L208.86,23.7576L215.655,41.8782Q215.69,41.9702,215.733,42.0584Q215.777,42.1466,215.828,42.2301Q215.88,42.3136,215.94,42.3916Q216,42.4696,216.067,42.5414Q216.134,42.6132,216.207,42.6781Q216.281,42.743,216.361,42.8003Q216.441,42.8576,216.526,42.9068Q216.611,42.9561,216.7,42.9967Q216.79,43.0374,216.883,43.0691Q216.976,43.1008,217.071,43.1232Q217.167,43.1456,217.265,43.1586Q217.362,43.1715,217.46,43.1748Q217.558,43.1782,217.656,43.1719Q217.754,43.1656,217.851,43.1497Q217.948,43.1338,218.043,43.1085Q218.138,43.0832,218.23,43.0487Q218.423,42.9764,218.597,42.8664Q218.771,42.7564,218.919,42.6133Q219.067,42.4701,219.182,42.2999Q219.298,42.1296,219.377,41.9394L225.394,27.368L228.279,27.368L234.399,40.6681Q234.44,40.7573,234.49,40.8421Q234.539,40.9269,234.597,41.0065Q234.655,41.086,234.72,41.1595Q234.785,41.233,234.857,41.2997Q234.929,41.3665,235.008,41.4258Q235.086,41.4852,235.17,41.5366Q235.254,41.588,235.342,41.6309Q235.43,41.6738,235.522,41.7079Q235.615,41.742,235.71,41.7669Q235.805,41.7917,235.902,41.8072Q235.999,41.8226,236.097,41.8285Q236.195,41.8343,236.293,41.8305Q236.391,41.8267,236.489,41.8133Q236.586,41.7999,236.682,41.7771Q236.777,41.7542,236.87,41.7221Q236.963,41.6899,237.052,41.6489Q237.359,41.5078,237.602,41.2739Q237.845,41.0401,237.998,40.7394L246.053,24.9174L247.807,25.8049L237.605,46.152L234.685,46.152L228.819,33.3053Q228.738,33.1261,228.622,32.966300000000004Q228.507,32.8065,228.363,32.6723Q228.219,32.538,228.051,32.4345Q227.884,32.331,227.699,32.262100000000004Q227.514,32.1933,227.32,32.1618Q227.126,32.1302,226.929,32.137299999999996Q226.732,32.1443,226.54,32.1896Q226.348,32.234899999999996,226.169,32.3167ZM133.834,50.2914L132.75799999999998,28.03L130.631,26.3283L112.959,29.0969L111.377,30.72L108.5747,49.1573L110.629,49.4633L113.15,32.561Q113.173,32.4043,113.221,32.253299999999996Q113.269,32.1023,113.34,31.9606Q113.411,31.819,113.503,31.6903Q113.595,31.5616,113.707,31.449Q113.818,31.3365,113.946,31.2428Q114.073,31.1492,114.214,31.0769Q114.355,31.0045,114.506,30.9552Q114.656,30.906,114.813,30.881L128.445,28.705Q128.55200000000002,28.6879,128.66,28.6825Q128.75900000000001,28.6776,128.857,28.6823Q128.95499999999998,28.6871,129.05200000000002,28.7014Q129.149,28.7158,129.245,28.7396Q129.34,28.7634,129.43200000000002,28.7964Q129.525,28.8295,129.614,28.8714Q129.703,28.9133,129.787,28.9638Q129.87099999999998,29.0142,129.95,29.0727Q130.029,29.1312,130.102,29.1971Q130.175,29.2631,130.24099999999999,29.3358Q130.30700000000002,29.4086,130.36599999999999,29.4874Q130.424,29.5663,130.475,29.6506Q130.525,29.7348,130.567,29.8236Q130.60899999999998,29.9124,130.643,30.0049Q130.676,30.0973,130.7,30.1926Q130.724,30.2879,130.738,30.3851Q130.753,30.4823,130.75799999999998,30.5804L131.74599999999998,50.4014L133.834,50.2914ZM166.083,35.408500000000004Q166.072,35.2406,166.033,35.076899999999995Q165.993,34.9133,165.927,34.7585Q165.861,34.6037,165.77,34.4621Q165.679,34.3206,165.566,34.196200000000005Q165.452,34.0719,165.32,33.968199999999996Q165.187,33.864599999999996,165.039,33.7845Q164.891,33.704499999999996,164.732,33.650400000000005Q164.572,33.596199999999996,164.406,33.5694L147.318,30.8174Q147.221,30.8018,147.123,30.7958Q147.025,30.7897,146.927,30.7933Q146.828,30.7969,146.731,30.8102Q146.634,30.8234,146.538,30.8461Q146.443,30.8687,146.35,30.9007Q146.257,30.9326,146.167,30.9735Q146.078,31.0144,145.993,31.0639Q145.908,31.1134,145.829,31.1709Q145.749,31.2285,145.675,31.2935Q145.602,31.3586,145.535,31.4306Q145.468,31.5026,145.408,31.5807Q145.349,31.6589,145.297,31.7426Q145.246,31.8262,145.203,31.9145Q145.16,32.0028,145.125,32.094899999999996Q145.091,32.187,145.066,32.282Q145.041,32.376999999999995,145.025,32.474000000000004Q145.021,32.499700000000004,145.018,32.5255L142.97,47.7575Q142.957,47.8549,142.953,47.9531Q142.95,48.0512,142.956,48.1493Q142.962,48.2474,142.978,48.3444Q142.994,48.4413,143.019,48.5363Q143.044,48.6313,143.078,48.7233Q143.113,48.8154,143.156,48.9036Q143.199,48.9919,143.251,49.0755Q143.302,49.159,143.362,49.2371Q143.422,49.3153,143.489,49.3872Q143.555,49.4591,143.629,49.524Q143.703,49.589,143.783,49.6465Q143.862,49.7039,143.947,49.7533Q144.032,49.8026,144.122,49.8434Q144.211,49.8842,144.304,49.9161Q144.397,49.9479,144.492,49.9705Q144.588,49.9931,144.685,50.0062Q144.924,50.0383,145.164,50.0128L165.004,47.9008Q165.099,47.8906,165.193,47.8714Q165.287,47.8522,165.378,47.8241Q165.47,47.796,165.559,47.7592Q165.647,47.7225,165.732,47.6774Q165.816,47.6324,165.896,47.5795Q165.976,47.5265,166.051,47.4662Q166.125,47.4059,166.194,47.3387Q166.262,47.2715,166.324,47.1981Q166.385,47.1247,166.44,47.0457Q166.494,46.9668,166.54,46.8829Q166.587,46.7991,166.625,46.7113Q166.664,46.6234,166.693,46.5323Q166.723,46.4411,166.744,46.3476Q166.765,46.254,166.777,46.1589Q166.789,46.0638,166.791,45.968Q166.794,45.8721,166.787,45.7765L166.083,35.408500000000004ZM162.2,37.2658L148.709,35.0929L147.274,45.7656L162.666,44.127L162.2,37.2658ZM262.00800000000004,39.176Q261.842,39.176,261.679,39.2032Q261.51599999999996,39.2305,261.35900000000004,39.2842Q261.202,39.338,261.057,39.4168Q260.911,39.4955,260.78,39.5972Q260.65,39.6989,260.53700000000003,39.8207Q260.425,39.9425,260.334,40.0811Q260.244,40.2197,260.177,40.3713Q260.11,40.5229,260.07,40.6835L258.086,48.4915Q258.03700000000003,48.6824,258.027,48.8791Q258.01599999999996,49.0758,258.04499999999996,49.2707Q258.073,49.4657,258.139,49.6514Q258.204,49.8371,258.305,50.0064Q258.406,50.1757,258.538,50.3221Q258.669,50.4685,258.827,50.5864Q258.985,50.7042,259.163,50.7891Q259.341,50.8739,259.531,50.9224Q259.932,51.0241,260.339,50.959L281.587,47.567Q281.683,47.5518,281.776,47.5275Q281.869,47.5032,281.96,47.47Q282.05,47.4368,282.137,47.3951Q282.224,47.3533,282.307,47.3034Q282.389,47.2535,282.467,47.1959Q282.544,47.1383,282.616,47.0735Q282.687,47.0087,282.752,46.9373Q282.817,46.8659,282.875,46.7886Q282.932,46.7113,282.982,46.6288Q283.032,46.5464,283.074,46.4594Q283.116,46.3725,283.149,46.282Q283.182,46.1914,283.207,46.0981Q283.231,46.0048,283.247,45.9096Q283.262,45.8143,283.268,45.7181Q283.274,45.6218,283.271,45.5254Q283.268,45.429,283.255,45.3333L282.679,40.9173Q282.668,40.828,282.648,40.74Q282.628,40.652,282.601,40.5662Q282.573,40.4804,282.538,40.3973Q282.503,40.3143,282.461,40.2348Q282.418,40.1553,282.369,40.0799Q282.32,40.0045,282.264,39.9339Q282.208,39.8632,282.145,39.7979Q282.083,39.7326,282.016,39.6731Q281.948,39.6136,281.875,39.5605Q281.802,39.5074,281.725,39.461Q281.648,39.4146,281.567,39.3754Q281.485,39.3362,281.401,39.3044Q281.317,39.2726,281.23,39.2486Q281.143,39.2245,281.054,39.2084Q280.966,39.1922,280.876,39.1841Q280.786,39.176,280.696,39.176L262.00800000000004,39.176ZM263.563,43.176L262.711,46.5297L279.037,43.9234L278.94,43.176L263.563,43.176Z" fill-rule="evenodd" fill="#CFFEEE" fill-opacity="1"/></g><g transform="matrix(-1,0,0,1,96,0)"><path d="M48.793294,76.8237L48.792922,76.8244Q48.648308,77.0958,48.573779,77.39410000000001Q48.499249,77.6925,48.499249,78L48.499257,78.0062Q48.500178,78.3755,48.60784,78.7288Q48.679621,78.96430000000001,48.795974,79.1813Q48.912326,79.3983,49.06878,79.58850000000001Q49.22523,79.7786,49.41577,79.9346Q49.60631,80.09049999999999,49.82361,80.2063Q50.09501,80.3509,50.39337,80.4255Q50.69173,80.5,50.99925,80.5Q51.11112,80.5,51.22257,80.49000000000001Q51.37711,80.4761,51.52876,80.4433Q51.6804,80.41040000000001,51.82681,80.3591Q51.97323,80.3077,52.11217,80.23859999999999Q52.25111,80.1695,52.38044,80.0838Q52.50977,79.9981,52.62751,79.89699999999999Q52.74525,79.79599999999999,52.84959,79.6811Q52.95393,79.5663,53.04327,79.4394Q53.13261,79.3126,53.20558,79.1756L53.20595,79.17490000000001L65.2063,56.6537Q65.2641,56.5453,65.3109,56.431799999999996Q65.3578,56.3183,65.3933,56.2007Q65.4288,56.0831,65.4526,55.962599999999995Q65.4764,55.8422,65.4883,55.719899999999996Q65.5002,55.5977,65.5,55.474900000000005Q65.4998,55.352000000000004,65.4876,55.2298Q65.47540000000001,55.107600000000005,65.4513,54.9872Q65.4272,54.8668,65.3914,54.749300000000005Q65.3556,54.6318,65.3085,54.5184Q65.2613,54.405,65.2033,54.2967Q65.1452,54.188500000000005,65.0769,54.0865Q65.0085,53.9844,64.9305,53.8896Q64.8524,53.794799999999995,64.7655,53.708Q64.6785,53.621300000000005,64.5835,53.5435Q64.4884,53.4657,64.3862,53.3976Q64.28399999999999,53.329499999999996,64.1756,53.2718Q63.9042,53.1271,63.6059,53.0526Q63.3075,52.9781,63,52.9781L52.167699999999996,52.9781L62.2002,34.17695Q62.3452,33.905305,62.4199,33.606604Q62.4946,33.307904,62.4946,33.00000274859Q62.4946,32.888862,62.484700000000004,32.778162Q62.471000000000004,32.623612,62.4382,32.47195Q62.4054,32.320288,62.3541,32.173842Q62.3029,32.027397,62.2339,31.88842Q62.1649,31.74943,62.0792,31.62005Q61.9936,31.49067,61.8926,31.37287Q61.7916,31.25507,61.6768,31.15066Q61.5621,31.04625,61.4353,30.95684Q61.3084,30.86742,61.1716,30.79437Q60.8999,30.64942,60.6012,30.57471Q60.3025,30.5,59.9946,30.5Q59.8835,30.5,59.772800000000004,30.50986Q59.6182,30.52363,59.466499999999996,30.5564Q59.3149,30.58918,59.1684,30.64045Q59.022,30.69173,58.882999999999996,30.76072Q58.744,30.82971,58.6147,30.91536Q58.4853,31.001,58.3675,31.10199Q58.249700000000004,31.20298,58.1453,31.31776Q58.0409,31.43254,57.95144,31.55935Q57.86202,31.68616,57.78897,31.82305L45.79437,54.301100000000005Q45.64942,54.5728,45.57471,54.8715Q45.5,55.1702,45.5,55.4781Q45.5,55.600899999999996,45.51204,55.7231Q45.52408,55.8454,45.54804,55.9658Q45.572,56.0863,45.60765,56.2038Q45.643299999999996,56.3213,45.6903,56.434799999999996Q45.7373,56.5483,45.7952,56.6566Q45.85309,56.7649,45.92133,56.867000000000004Q45.98956,56.9691,46.06747,57.064099999999996Q46.14539,57.159,46.23223,57.2459Q46.31908,57.3327,46.41402,57.4106Q46.50896,57.4885,46.61107,57.556799999999996Q46.71319,57.625,46.82151,57.682900000000004Q46.92982,57.7408,47.043292,57.787800000000004Q47.15676,57.8348,47.274288,57.870400000000004Q47.391817,57.906099999999995,47.512274,57.930099999999996Q47.632731,57.954,47.754957,57.9661Q47.877183,57.9781,48,57.9781L58.8351,57.9781L48.793294,76.8237Z" fill-rule="evenodd" fill="#FFC300" fill-opacity="1"/></g></g></svg>